<?xml version="1.0" standalone="no"?>
<!DOCTYPE svg PUBLIC "-//W3C//DTD SVG 20010904//EN"
 "http://www.w3.org/TR/2001/REC-SVG-20010904/DTD/svg10.dtd">
<svg version="1.0" xmlns="http://www.w3.org/2000/svg"
 width="200.000000pt" height="50.000000pt" viewBox="0 0 200.000000 50.000000"
 preserveAspectRatio="xMidYMid meet">

<g transform="translate(0.000000,50.000000) scale(0.100000,-0.100000)"
fill="#000000" stroke="none">
<path d="M190 458 c-19 -5 -39 -14 -45 -19 -5 -5 5 -4 24 2 37 13 87 -2 78
-24 -3 -8 5 -14 20 -15 13 -1 33 -7 44 -12 24 -13 59 -4 59 16 0 24 -4 29 -18
26 -8 -2 -11 1 -8 6 9 15 -19 21 -76 17 -44 -3 -47 -3 -18 4 34 8 35 8 5 9
-16 0 -46 -4 -65 -10z"/>
<path d="M94 399 c-24 -26 -25 -30 -7 -20 13 6 27 20 33 31 15 28 8 25 -26
-11z"/>
<path d="M404 403 c18 -22 11 -32 -9 -15 -6 4 5 -7 23 -26 24 -24 32 -42 32
-68 0 -44 -20 -52 -59 -25 l-30 21 -33 -28 c-18 -16 -40 -27 -48 -25 -11 3
-11 2 1 -6 9 -6 20 -27 24 -47 5 -31 2 -41 -22 -68 -27 -30 -27 -30 9 3 30 28
42 33 72 29 19 -2 34 -2 31 0 -10 11 29 91 50 102 14 7 25 22 25 32 0 28 -27
88 -40 88 -6 0 -9 4 -6 9 3 4 -4 17 -17 27 l-22 19 19 -22z"/>
<path d="M200 375 c-13 -14 -34 -25 -47 -25 -40 0 -62 -18 -69 -58 -4 -20 -14
-42 -23 -49 -13 -10 -17 -7 -22 15 -6 24 -7 24 -7 -8 0 -19 4 -46 8 -60 8 -24
8 -23 9 8 1 18 7 35 15 38 21 8 64 -27 69 -56 l4 -25 2 26 c0 14 14 38 30 53
26 25 28 31 19 68 -8 37 -6 44 18 70 15 15 25 28 23 28 -3 0 -16 -11 -29 -25z"/>
<path d="M1930 353 c0 -8 -16 -113 -25 -171 -5 -27 -3 -32 14 -32 21 0 23 6
41 120 13 87 13 90 -10 90 -11 0 -20 -3 -20 -7z"/>
<path d="M351 334 c0 -11 3 -14 6 -6 3 7 2 16 -1 19 -3 4 -6 -2 -5 -13z"/>
<path d="M565 340 c-3 -5 4 -10 15 -10 18 0 21 -4 17 -22 -3 -13 -9 -45 -12
-73 -4 -27 -9 -58 -12 -67 -3 -14 2 -18 20 -18 23 0 25 5 36 90 11 78 15 90
32 90 10 0 19 5 19 10 0 6 -24 10 -54 10 -30 0 -58 -4 -61 -10z"/>
<path d="M1330 268 c-6 -46 -14 -91 -17 -100 -4 -15 3 -18 40 -18 38 0 49 5
71 31 21 25 26 41 26 84 0 62 -21 85 -76 85 l-32 0 -12 -82z m75 51 c10 -16
-4 -114 -20 -135 -22 -31 -26 -11 -13 69 11 74 19 89 33 66z"/>
<path d="M1490 336 c-13 -17 -6 -36 15 -36 19 0 26 27 11 39 -10 8 -17 7 -26
-3z"/>
<path d="M680 270 c-24 -24 -27 -82 -4 -104 38 -38 94 -1 94 62 0 21 -5 43
-12 50 -18 18 -56 14 -78 -8z m50 -34 c0 -40 -8 -66 -21 -66 -10 0 -12 44 -3
78 9 34 24 26 24 -12z"/>
<path d="M793 220 c-9 -69 -9 -70 14 -70 19 0 23 6 24 33 1 17 5 43 9 57 l8
25 7 -22 c10 -32 22 -29 30 8 8 37 0 47 -25 31 -12 -7 -20 -8 -20 -2 0 5 -8
10 -19 10 -15 0 -20 -12 -28 -70z"/>
<path d="M906 263 c-19 -101 -19 -113 3 -113 19 0 24 12 34 89 1 8 8 16 15 19
9 3 11 -9 6 -52 -6 -52 -5 -56 14 -56 17 0 21 9 27 61 8 70 -2 92 -35 71 -12
-7 -21 -8 -25 -2 -12 19 -33 10 -39 -17z"/>
<path d="M1046 271 c-21 -24 -25 -83 -7 -105 23 -28 71 -19 84 17 4 12 1 17
-10 17 -9 0 -22 -8 -29 -17 -12 -16 -13 -15 -14 10 0 23 4 27 29 27 33 0 46
22 31 51 -14 25 -62 25 -84 0z m54 -21 c0 -11 -7 -20 -15 -20 -17 0 -18 2 -9
24 9 23 24 20 24 -4z"/>
<path d="M1166 271 c-22 -24 -18 -99 5 -114 39 -25 89 19 89 78 0 50 -60 73
-94 36z m50 -43 c-10 -62 -26 -72 -26 -17 0 46 5 59 23 59 6 0 7 -17 3 -42z"/>
<path d="M1476 273 c-2 -10 -8 -42 -11 -70 -6 -49 -5 -53 13 -53 16 0 22 9 27
43 3 23 8 54 11 70 5 22 2 27 -15 27 -11 0 -22 -8 -25 -17z"/>
<path d="M1551 271 c-14 -14 -21 -34 -21 -61 0 -33 4 -42 25 -52 30 -13 75 3
75 27 0 19 -29 20 -36 0 -9 -24 -24 -17 -24 10 0 21 5 25 30 25 34 0 49 23 33
49 -15 24 -59 25 -82 2z m49 -21 c0 -11 -6 -20 -14 -20 -9 0 -12 7 -9 20 3 11
9 20 14 20 5 0 9 -9 9 -20z"/>
<path d="M1670 275 c-7 -9 -15 -38 -18 -65 -4 -40 -1 -51 12 -56 9 -3 23 -1
31 6 12 10 15 10 15 -1 0 -22 -13 -37 -40 -48 -23 -9 -22 -10 12 -10 45 -1 63
21 73 89 3 25 8 57 11 73 5 22 2 27 -15 27 -12 0 -21 -5 -21 -12 0 -9 -3 -9
-12 0 -16 16 -33 15 -48 -3z m50 -39 c0 -31 -10 -56 -21 -56 -10 0 -12 40 -3
64 9 24 24 19 24 -8z"/>
<path d="M1800 270 c-27 -27 -28 -95 -1 -110 29 -15 49 -12 71 10 23 23 28 88
8 108 -18 18 -56 14 -78 -8z m50 -27 c0 -38 -10 -73 -21 -73 -10 0 -12 44 -3
78 9 31 24 28 24 -5z"/>
<path d="M401 112 c-1 -17 -12 -28 -41 -41 -22 -10 -37 -21 -34 -24 10 -10 56
18 89 54 17 18 23 28 13 21 -13 -10 -17 -10 -21 0 -3 7 -6 3 -6 -10z"/>
<path d="M138 103 c-13 -12 -20 -13 -39 -3 -24 13 -24 13 -6 -8 11 -12 25 -18
35 -15 10 4 13 2 8 -5 -12 -19 37 -36 111 -36 39 -1 69 2 66 7 -2 4 -16 7 -30
7 -16 0 -27 7 -30 20 -3 11 -14 20 -25 20 -10 0 -32 6 -47 14 -25 13 -30 13
-43 -1z"/>
</g>
</svg>
